<svg xmlns="http://www.w3.org/2000/svg" xmlns:xlink="http://www.w3.org/1999/xlink" contentStyleType="text/css" height="277px" preserveAspectRatio="none" style="width:592px;height:277px;background:#1B1B1B;" version="1.1" viewBox="0 0 592 277" width="592px" zoomAndPan="magnify"><defs/><g><rect fill="#1B1B1B" height="277" style="stroke:none;stroke-width:1.0;" width="592" x="0" y="0"/><!--entity Passenger--><g id="elem_Passenger"><ellipse cx="163.9558" cy="14" fill="#313139" rx="8" ry="8" style="stroke:#E7E7E7;stroke-width:0.5;"/><path d="M163.9558,22 L163.9558,49 M150.9558,30 L176.9558,30 M163.9558,49 L150.9558,64 M163.9558,49 L176.9558,64 " fill="none" style="stroke:#E7E7E7;stroke-width:0.5;"/><text fill="#FFFFFF" font-family="sans-serif" font-size="14" lengthAdjust="spacing" textLength="72.3516" x="127.78" y="78.4951">Passenger</text></g><!--entity TM--><g id="elem_TM"><ellipse cx="427.9617" cy="14" fill="#313139" rx="8" ry="8" style="stroke:#E7E7E7;stroke-width:0.5;"/><path d="M427.9617,22 L427.9617,49 M414.9617,30 L440.9617,30 M427.9617,49 L414.9617,64 M427.9617,49 L440.9617,64 " fill="none" style="stroke:#E7E7E7;stroke-width:0.5;"/><text fill="#FFFFFF" font-family="sans-serif" font-size="14" lengthAdjust="spacing" textLength="105.4033" x="375.26" y="78.4951">Ticket Machine</text></g><g id="elem_Purchase Ticket"><ellipse cx="163.9573" cy="159.5855" fill="#313139" rx="76.9273" ry="17.7855" style="stroke:#E7E7E7;stroke-width:0.5;"/><text fill="#FFFFFF" font-family="sans-serif" font-size="14" lengthAdjust="spacing" textLength="110.9268" x="105.5927" y="163.3075">Purchase Ticket</text></g><g id="elem_Issue Ticket"><ellipse cx="341.9633" cy="159.5927" fill="#313139" rx="66.4633" ry="15.6927" style="stroke:#E7E7E7;stroke-width:0.5;"/><text fill="#FFFFFF" font-family="sans-serif" font-size="14" lengthAdjust="spacing" textLength="83.002" x="297.4623" y="163.3402">Issue Ticket</text></g><g id="elem_Refund Ticket"><ellipse cx="514.9607" cy="159.5881" fill="#313139" rx="71.4407" ry="16.6881" style="stroke:#E7E7E7;stroke-width:0.5;"/><text fill="#FFFFFF" font-family="sans-serif" font-size="14" lengthAdjust="spacing" textLength="96.7012" x="463.6102" y="163.3357">Refund Ticket</text></g><g id="elem_Select Ticket"><ellipse cx="74.9598" cy="254.602" fill="#313139" rx="68.9598" ry="16.192" style="stroke:#E7E7E7;stroke-width:0.5;"/><text fill="#FFFFFF" font-family="sans-serif" font-size="14" lengthAdjust="spacing" textLength="89.9883" x="26.9656" y="258.3495">Select Ticket</text></g><g id="elem_Make Payment"><ellipse cx="252.9629" cy="254.6046" fill="#313139" rx="74.1229" ry="17.2246" style="stroke:#E7E7E7;stroke-width:0.5;"/><text fill="#FFFFFF" font-family="sans-serif" font-size="14" lengthAdjust="spacing" textLength="103.749" x="198.0884" y="258.3521">Make Payment</text></g><!--link Passenger to Purchase Ticket--><g id="link_Passenger_Purchase Ticket"><path d="M163.96,82.27 C163.96,102.24 163.96,119.8 163.96,135.4 " fill="none" id="Passenger-to-Purchase Ticket" style="stroke:#E7E7E7;stroke-width:1.0;"/><polygon fill="#E7E7E7" points="163.96,141.4,167.96,132.4,163.96,136.4,159.96,132.4,163.96,141.4" style="stroke:#E7E7E7;stroke-width:1.0;"/></g><!--link TM to Issue Ticket--><g id="link_TM_Issue Ticket"><path d="M399.56,82.27 C383.71,103.27 368.4653,123.4715 356.7553,138.9815 " fill="none" id="TM-to-Issue Ticket" style="stroke:#E7E7E7;stroke-width:1.0;"/><polygon fill="#E7E7E7" points="353.14,143.77,361.7553,138.9975,356.1527,139.7796,355.3706,134.1771,353.14,143.77" style="stroke:#E7E7E7;stroke-width:1.0;"/></g><!--link TM to Refund Ticket--><g id="link_TM_Refund Ticket"><path d="M456.69,82.27 C472.43,102.89 487.4485,122.5614 499.3385,138.1314 " fill="none" id="TM-to-Refund Ticket" style="stroke:#E7E7E7;stroke-width:1.0;"/><polygon fill="#E7E7E7" points="502.98,142.9,500.6968,133.3195,499.9454,138.9262,494.3387,138.1748,502.98,142.9" style="stroke:#E7E7E7;stroke-width:1.0;"/></g><!--link Purchase Ticket to Select Ticket--><g id="link_Purchase Ticket_Select Ticket"><path d="M148.05,177.21 C131.45,194.56 109.8001,217.1968 93.7001,234.0068 " fill="none" id="Purchase Ticket-to-Select Ticket" style="stroke:#E7E7E7;stroke-width:1.0;"/><polygon fill="#E7E7E7" points="89.55,238.34,98.664,234.607,93.0085,234.729,92.8864,229.0735,89.55,238.34" style="stroke:#E7E7E7;stroke-width:1.0;"/></g><!--link Purchase Ticket to Make Payment--><g id="link_Purchase Ticket_Make Payment"><path d="M179.87,177.21 C196.17,194.25 217.1909,216.2258 233.3309,233.0858 " fill="none" id="Purchase Ticket-to-Make Payment" style="stroke:#E7E7E7;stroke-width:1.0;"/><polygon fill="#E7E7E7" points="237.48,237.42,234.1458,228.1527,234.0224,233.8082,228.3669,233.6848,237.48,237.42" style="stroke:#E7E7E7;stroke-width:1.0;"/></g><!--SRC=[IqmkoIzI24WiBaxDIqyjuae4yvL2CfEpKqiKV1EJCpBpKfKK4eiLGdovkE3g57HrxHGq0agBaZCIYrCL8CerkK9y8HAUnSMbcA91gMcbUIbmOIuC_H1bmQavgSabS6KuLFacPgS2tLsPcvfNeWa0]--></g></svg>