<svg xmlns="http://www.w3.org/2000/svg" xmlns:xlink="http://www.w3.org/1999/xlink" contentStyleType="text/css" height="200px" preserveAspectRatio="none" style="width:462px;height:200px;background:#1B1B1B;" version="1.1" viewBox="0 0 462 200" width="462px" zoomAndPan="magnify"><defs/><g><rect fill="#1B1B1B" height="200" style="stroke:none;stroke-width:1.0;" width="462" x="0" y="0"/><!--entity User--><g id="elem_User"><ellipse cx="440.0051" cy="14" fill="#313139" rx="8" ry="8" style="stroke:#E7E7E7;stroke-width:0.5;"/><path d="M440.0051,22 L440.0051,49 M427.0051,30 L453.0051,30 M440.0051,49 L427.0051,64 M440.0051,49 L453.0051,64 " fill="none" style="stroke:#E7E7E7;stroke-width:0.5;"/><text fill="#FFFFFF" font-family="sans-serif" font-size="14" lengthAdjust="spacing" textLength="31.9102" x="424.05" y="78.4951">User</text></g><g id="elem_Place Order"><ellipse cx="72.0096" cy="43.6419" fill="#313139" rx="66.0096" ry="15.6019" style="stroke:#E7E7E7;stroke-width:0.5;"/><text fill="#FFFFFF" font-family="sans-serif" font-size="14" lengthAdjust="spacing" textLength="81.7031" x="28.1581" y="47.3895">Place Order</text></g><g id="elem_Receive Order"><ellipse cx="316.0067" cy="43.6413" fill="#313139" rx="72.6567" ry="16.9313" style="stroke:#E7E7E7;stroke-width:0.5;"/><text fill="#FFFFFF" font-family="sans-serif" font-size="14" lengthAdjust="spacing" textLength="99.9209" x="263.0463" y="47.3889">Receive Order</text></g><g id="elem_Request Refund"><ellipse cx="316.0137" cy="176.6487" fill="#313139" rx="77.2937" ry="17.8587" style="stroke:#E7E7E7;stroke-width:0.5;"/><text fill="#FFFFFF" font-family="sans-serif" font-size="14" lengthAdjust="spacing" textLength="111.8496" x="257.3433" y="180.33">Request Refund</text></g><!--link Place Order to Receive Order--><g id="link_Place Order_Receive Order"><path d="M138.36,43.64 C170.82,43.64 203.96,43.64 237.24,43.64 " fill="none" id="Place Order-to-Receive Order" style="stroke:#E7E7E7;stroke-width:1.0;"/><polygon fill="#E7E7E7" points="243.24,43.64,234.24,39.64,238.24,43.64,234.24,47.64,243.24,43.64" style="stroke:#E7E7E7;stroke-width:1.0;"/><text fill="#FFFFFF" font-family="sans-serif" font-size="13" lengthAdjust="spacing" textLength="69.7798" x="156.19" y="36.7069">&#171;includes&#187;</text></g><!--link Receive Order to Request Refund--><g id="link_Receive Order_Request Refund"><path d="M316.01,60.97 C316.01,85.94 316.01,127.37 316.01,152.7 " fill="none" id="Receive Order-to-Request Refund" style="stroke:#E7E7E7;stroke-width:1.0;"/><polygon fill="#E7E7E7" points="316.01,158.7,320.01,149.7,316.01,153.7,312.01,149.7,316.01,158.7" style="stroke:#E7E7E7;stroke-width:1.0;"/><text fill="#FFFFFF" font-family="sans-serif" font-size="13" lengthAdjust="spacing" textLength="67.958" x="317.01" y="124.8569">&#171;extends&#187;</text></g><!--SRC=[NSj12e0W40NGVQUOfIsyG8XNA8GE8CwlX30QjJf-GT2YzUFvK3QXCKCQDQm-W7fXI4jQuhmKRKav1CJZWuwCYIcibP6jRVwiUJlJs_QANCXXgedVXwiWyTDk]--></g></svg>