<svg xmlns="http://www.w3.org/2000/svg" xmlns:xlink="http://www.w3.org/1999/xlink" contentStyleType="text/css" height="424px" preserveAspectRatio="none" style="width:565px;height:424px;background:#1B1B1B;" version="1.1" viewBox="0 0 565 424" width="565px" zoomAndPan="magnify"><defs/><g><rect fill="#1B1B1B" height="424" style="stroke:none;stroke-width:1.0;" width="565" x="0" y="0"/><!--class Student--><g id="elem_Student"><rect codeLine="1" fill="#313139" height="96.8906" id="Student" rx="2.5" ry="2.5" style="stroke:#E7E7E7;stroke-width:0.5;" width="185.8037" x="180.42" y="7"/><ellipse cx="241.5162" cy="23" fill="#2E5233" rx="11" ry="11" style="stroke:#E7E7E7;stroke-width:1.0;"/><path d="M244.4849,28.6406 Q243.9068,28.9375 243.2662,29.0781 Q242.6256,29.2344 241.9224,29.2344 Q239.4224,29.2344 238.0943,27.5938 Q236.7818,25.9375 236.7818,22.8125 Q236.7818,19.6875 238.0943,18.0313 Q239.4224,16.375 241.9224,16.375 Q242.6256,16.375 243.2662,16.5313 Q243.9224,16.6875 244.4849,16.9844 L244.4849,19.7031 Q243.8599,19.125 243.2662,18.8594 Q242.6724,18.5781 242.0474,18.5781 Q240.7037,18.5781 240.0162,19.6563 Q239.3287,20.7188 239.3287,22.8125 Q239.3287,24.9063 240.0162,25.9844 Q240.7037,27.0469 242.0474,27.0469 Q242.6724,27.0469 243.2662,26.7813 Q243.8599,26.5 244.4849,25.9219 L244.4849,28.6406 Z " fill="#FFFFFF"/><text fill="#FFFFFF" font-family="sans-serif" font-size="14" lengthAdjust="spacing" textLength="55.1113" x="262.0162" y="27.8467">Student</text><line style="stroke:#E7E7E7;stroke-width:0.5;" x1="181.42" x2="365.2237" y1="39" y2="39"/><rect fill="none" height="6" style="stroke:#C82930;stroke-width:1.0;" width="6" x="188.42" y="49.6484"/><text fill="#FFFFFF" font-family="sans-serif" font-size="14" lengthAdjust="spacing" textLength="95.1016" x="200.42" y="55.9951">name : String</text><rect fill="none" height="6" style="stroke:#C82930;stroke-width:1.0;" width="6" x="188.42" y="65.9453"/><text fill="#FFFFFF" font-family="sans-serif" font-size="14" lengthAdjust="spacing" textLength="76.7539" x="200.42" y="72.292">id : Integer</text><line style="stroke:#E7E7E7;stroke-width:0.5;" x1="181.42" x2="365.2237" y1="79.5938" y2="79.5938"/><ellipse cx="191.42" cy="93.2422" fill="#84BE84" rx="3" ry="3" style="stroke:#038048;stroke-width:1.0;"/><text fill="#FFFFFF" font-family="sans-serif" font-size="14" lengthAdjust="spacing" textLength="159.8037" x="200.42" y="96.5889">enroll(course : Course)</text></g><!--class Course--><g id="elem_Course"><rect codeLine="7" fill="#313139" height="96.8906" id="Course" rx="2.5" ry="2.5" style="stroke:#E7E7E7;stroke-width:0.5;" width="240.6348" x="7" y="163.89"/><ellipse cx="98.6289" cy="179.89" fill="#2E5233" rx="11" ry="11" style="stroke:#E7E7E7;stroke-width:1.0;"/><path d="M101.5977,185.5306 Q101.0195,185.8275 100.3789,185.9681 Q99.7383,186.1244 99.0352,186.1244 Q96.5352,186.1244 95.207,184.4838 Q93.8945,182.8275 93.8945,179.7025 Q93.8945,176.5775 95.207,174.9213 Q96.5352,173.265 99.0352,173.265 Q99.7383,173.265 100.3789,173.4213 Q101.0352,173.5775 101.5977,173.8744 L101.5977,176.5931 Q100.9727,176.015 100.3789,175.7494 Q99.7852,175.4681 99.1602,175.4681 Q97.8164,175.4681 97.1289,176.5463 Q96.4414,177.6088 96.4414,179.7025 Q96.4414,181.7963 97.1289,182.8744 Q97.8164,183.9369 99.1602,183.9369 Q99.7852,183.9369 100.3789,183.6713 Q100.9727,183.39 101.5977,182.8119 L101.5977,185.5306 Z " fill="#FFFFFF"/><text fill="#FFFFFF" font-family="sans-serif" font-size="14" lengthAdjust="spacing" textLength="48.877" x="119.1289" y="184.7367">Course</text><line style="stroke:#E7E7E7;stroke-width:0.5;" x1="8" x2="246.6348" y1="195.89" y2="195.89"/><rect fill="none" height="6" style="stroke:#C82930;stroke-width:1.0;" width="6" x="15" y="206.5384"/><text fill="#FFFFFF" font-family="sans-serif" font-size="14" lengthAdjust="spacing" textLength="138.0381" x="27" y="212.8851">courseCode : String</text><rect fill="none" height="6" style="stroke:#C82930;stroke-width:1.0;" width="6" x="15" y="222.8353"/><text fill="#FFFFFF" font-family="sans-serif" font-size="14" lengthAdjust="spacing" textLength="82.7695" x="27" y="229.182">title : String</text><line style="stroke:#E7E7E7;stroke-width:0.5;" x1="8" x2="246.6348" y1="236.4838" y2="236.4838"/><ellipse cx="18" cy="250.1322" fill="#84BE84" rx="3" ry="3" style="stroke:#038048;stroke-width:1.0;"/><text fill="#FFFFFF" font-family="sans-serif" font-size="14" lengthAdjust="spacing" textLength="214.6348" x="27" y="253.4789">addStudent(student : Student)</text></g><!--class Teacher--><g id="elem_Teacher"><rect codeLine="13" fill="#313139" height="96.8906" id="Teacher" rx="2.5" ry="2.5" style="stroke:#E7E7E7;stroke-width:0.5;" width="239.9102" x="7.36" y="320.78"/><ellipse cx="94.7233" cy="336.78" fill="#2E5233" rx="11" ry="11" style="stroke:#E7E7E7;stroke-width:1.0;"/><path d="M97.692,342.4206 Q97.1139,342.7175 96.4733,342.8581 Q95.8327,343.0144 95.1295,343.0144 Q92.6295,343.0144 91.3014,341.3738 Q89.9889,339.7175 89.9889,336.5925 Q89.9889,333.4675 91.3014,331.8113 Q92.6295,330.155 95.1295,330.155 Q95.8327,330.155 96.4733,330.3113 Q97.1295,330.4675 97.692,330.7644 L97.692,333.4831 Q97.067,332.905 96.4733,332.6394 Q95.8795,332.3581 95.2545,332.3581 Q93.9108,332.3581 93.2233,333.4363 Q92.5358,334.4988 92.5358,336.5925 Q92.5358,338.6863 93.2233,339.7644 Q93.9108,340.8269 95.2545,340.8269 Q95.8795,340.8269 96.4733,340.5613 Q97.067,340.28 97.692,339.7019 L97.692,342.4206 Z " fill="#FFFFFF"/><text fill="#FFFFFF" font-family="sans-serif" font-size="14" lengthAdjust="spacing" textLength="56.6836" x="115.2233" y="341.6267">Teacher</text><line style="stroke:#E7E7E7;stroke-width:0.5;" x1="8.36" x2="246.2702" y1="352.78" y2="352.78"/><rect fill="none" height="6" style="stroke:#C82930;stroke-width:1.0;" width="6" x="15.36" y="363.4284"/><text fill="#FFFFFF" font-family="sans-serif" font-size="14" lengthAdjust="spacing" textLength="95.1016" x="27.36" y="369.7751">name : String</text><rect fill="none" height="6" style="stroke:#C82930;stroke-width:1.0;" width="6" x="15.36" y="379.7253"/><text fill="#FFFFFF" font-family="sans-serif" font-size="14" lengthAdjust="spacing" textLength="146.0977" x="27.36" y="386.072">employeeId : Integer</text><line style="stroke:#E7E7E7;stroke-width:0.5;" x1="8.36" x2="246.2702" y1="393.3738" y2="393.3738"/><ellipse cx="18.36" cy="407.0222" fill="#84BE84" rx="3" ry="3" style="stroke:#038048;stroke-width:1.0;"/><text fill="#FFFFFF" font-family="sans-serif" font-size="14" lengthAdjust="spacing" textLength="213.9102" x="27.36" y="410.3689">assignCourse(course : Course)</text></g><!--class Grade--><g id="elem_Grade"><rect codeLine="19" fill="#313139" height="80.5938" id="Grade" rx="2.5" ry="2.5" style="stroke:#E7E7E7;stroke-width:0.5;" width="276.2158" x="282.21" y="172.04"/><ellipse cx="394.7261" cy="188.04" fill="#2E5233" rx="11" ry="11" style="stroke:#E7E7E7;stroke-width:1.0;"/><path d="M397.6949,193.6806 Q397.1167,193.9775 396.4761,194.1181 Q395.8355,194.2744 395.1324,194.2744 Q392.6324,194.2744 391.3042,192.6338 Q389.9917,190.9775 389.9917,187.8525 Q389.9917,184.7275 391.3042,183.0713 Q392.6324,181.415 395.1324,181.415 Q395.8355,181.415 396.4761,181.5713 Q397.1324,181.7275 397.6949,182.0244 L397.6949,184.7431 Q397.0699,184.165 396.4761,183.8994 Q395.8824,183.6181 395.2574,183.6181 Q393.9136,183.6181 393.2261,184.6963 Q392.5386,185.7588 392.5386,187.8525 Q392.5386,189.9463 393.2261,191.0244 Q393.9136,192.0869 395.2574,192.0869 Q395.8824,192.0869 396.4761,191.8213 Q397.0699,191.54 397.6949,190.9619 L397.6949,193.6806 Z " fill="#FFFFFF"/><text fill="#FFFFFF" font-family="sans-serif" font-size="14" lengthAdjust="spacing" textLength="42.6836" x="415.2261" y="192.8867">Grade</text><line style="stroke:#E7E7E7;stroke-width:0.5;" x1="283.21" x2="557.4258" y1="204.04" y2="204.04"/><rect fill="none" height="6" style="stroke:#C82930;stroke-width:1.0;" width="6" x="290.21" y="214.6884"/><text fill="#FFFFFF" font-family="sans-serif" font-size="14" lengthAdjust="spacing" textLength="135.6523" x="302.21" y="221.0351">gradeValue : String</text><line style="stroke:#E7E7E7;stroke-width:0.5;" x1="283.21" x2="557.4258" y1="228.3369" y2="228.3369"/><ellipse cx="293.21" cy="241.9853" fill="#84BE84" rx="3" ry="3" style="stroke:#038048;stroke-width:1.0;"/><text fill="#FFFFFF" font-family="sans-serif" font-size="14" lengthAdjust="spacing" textLength="250.2158" x="302.21" y="245.332">assignToStudent(student : Student)</text></g><!--link Student to Course--><g id="link_Student_Course"><path codeLine="24" d="M228.32,104.18 C210.56,123.02 194.3046,140.263 176.5346,159.123 " fill="none" id="Student-to-Course" style="stroke:#E7E7E7;stroke-width:1.0;"/><polygon fill="#E7E7E7" points="172.42,163.49,181.5032,159.6826,175.8488,159.8509,175.6806,154.1965,172.42,163.49" style="stroke:#E7E7E7;stroke-width:1.0;"/><text fill="#FFFFFF" font-family="sans-serif" font-size="13" lengthAdjust="spacing" textLength="59.5156" x="115.5512" y="152.9944">enrolls in</text></g><!--link Course to Teacher--><g id="link_Course_Teacher"><path codeLine="25" d="M127.32,261.07 C127.32,279.91 127.32,295.52 127.32,314.38 " fill="none" id="Course-to-Teacher" style="stroke:#E7E7E7;stroke-width:1.0;"/><polygon fill="#E7E7E7" points="127.32,320.38,131.32,311.38,127.32,315.38,123.32,311.38,127.32,320.38" style="stroke:#E7E7E7;stroke-width:1.0;"/><text fill="#FFFFFF" font-family="sans-serif" font-size="13" lengthAdjust="spacing" textLength="62.9688" x="61.2201" y="309.8844">taught by</text></g><!--link Student to Grade--><g id="link_Student_Grade"><path codeLine="26" d="M318.62,104.18 C339.12,125.78 358.94,146.6577 378.45,167.2177 " fill="none" id="Student-to-Grade" style="stroke:#E7E7E7;stroke-width:1.0;"/><polygon fill="#E7E7E7" points="382.58,171.57,379.2865,162.2882,379.1383,167.9431,373.4834,167.7949,382.58,171.57" style="stroke:#E7E7E7;stroke-width:1.0;"/><text fill="#FFFFFF" font-family="sans-serif" font-size="13" lengthAdjust="spacing" textLength="54.5645" x="318.3074" y="160.9549">receives</text></g><!--SRC=[VP1D2iCW48NtdcB8AYNa0bbqaqN9kgLxguCHZ1P_2g7qxZLge0aqkvddp9lFnnHr3gu-SDGUtWIWrNH2wA9cfHQB87bi1-rHe8rzWzeQfMfcWdNBP9-A4_aGmf9T5h9RdkeDttfwwTL6QIZd1QDs1QTRmNwyRqZPYFOFAavFPMR4OOSSDwNGcUi0_68fBznYAUzKXHrbChgPOzGrpxOzGvNZSY1rLIwI4b1wzZI8qSDZhjQ_RTSjCfGlT5Mc-m80]--></g></svg>