<svg xmlns="http://www.w3.org/2000/svg" xmlns:xlink="http://www.w3.org/1999/xlink" contentStyleType="text/css" height="235px" preserveAspectRatio="none" style="width:270px;height:235px;background:#1B1B1B;" version="1.1" viewBox="0 0 270 235" width="270px" zoomAndPan="magnify"><defs/><g><rect fill="#1B1B1B" height="235" style="stroke:none;stroke-width:1.0;" width="270" x="0" y="0"/><!--class Car--><g id="elem_Car"><rect codeLine="1" fill="#313139" height="80.5938" id="Car" rx="2.5" ry="2.5" style="stroke:#E7E7E7;stroke-width:0.5;" width="124.9912" x="73.84" y="7"/><ellipse cx="120.0304" cy="23" fill="#2E5233" rx="11" ry="11" style="stroke:#E7E7E7;stroke-width:1.0;"/><path d="M122.9992,28.6406 Q122.4211,28.9375 121.7804,29.0781 Q121.1398,29.2344 120.4367,29.2344 Q117.9367,29.2344 116.6086,27.5938 Q115.2961,25.9375 115.2961,22.8125 Q115.2961,19.6875 116.6086,18.0313 Q117.9367,16.375 120.4367,16.375 Q121.1398,16.375 121.7804,16.5313 Q122.4367,16.6875 122.9992,16.9844 L122.9992,19.7031 Q122.3742,19.125 121.7804,18.8594 Q121.1867,18.5781 120.5617,18.5781 Q119.2179,18.5781 118.5304,19.6563 Q117.8429,20.7188 117.8429,22.8125 Q117.8429,24.9063 118.5304,25.9844 Q119.2179,27.0469 120.5617,27.0469 Q121.1867,27.0469 121.7804,26.7813 Q122.3742,26.5 122.9992,25.9219 L122.9992,28.6406 Z " fill="#FFFFFF"/><text fill="#FFFFFF" font-family="sans-serif" font-size="14" lengthAdjust="spacing" textLength="24.1104" x="140.5304" y="27.8467">Car</text><line style="stroke:#E7E7E7;stroke-width:0.5;" x1="74.84" x2="197.8312" y1="39" y2="39"/><rect fill="none" height="6" style="stroke:#C82930;stroke-width:1.0;" width="6" x="81.84" y="49.6484"/><text fill="#FFFFFF" font-family="sans-serif" font-size="14" lengthAdjust="spacing" textLength="94.3359" x="93.84" y="55.9951">make : String</text><rect fill="none" height="6" style="stroke:#C82930;stroke-width:1.0;" width="6" x="81.84" y="65.9453"/><text fill="#FFFFFF" font-family="sans-serif" font-size="14" lengthAdjust="spacing" textLength="98.9912" x="93.84" y="72.292">model : String</text><line style="stroke:#E7E7E7;stroke-width:0.5;" x1="74.84" x2="197.8312" y1="79.5938" y2="79.5938"/></g><!--class Engine--><g id="elem_Engine"><rect codeLine="6" fill="#313139" height="64.2969" id="Engine" rx="2.5" ry="2.5" style="stroke:#E7E7E7;stroke-width:0.5;" width="112.6729" x="7" y="164.59"/><ellipse cx="36.7111" cy="180.59" fill="#2E5233" rx="11" ry="11" style="stroke:#E7E7E7;stroke-width:1.0;"/><path d="M39.6799,186.2306 Q39.1018,186.5275 38.4611,186.6681 Q37.8205,186.8244 37.1174,186.8244 Q34.6174,186.8244 33.2893,185.1837 Q31.9768,183.5275 31.9768,180.4025 Q31.9768,177.2775 33.2893,175.6212 Q34.6174,173.965 37.1174,173.965 Q37.8205,173.965 38.4611,174.1212 Q39.1174,174.2775 39.6799,174.5744 L39.6799,177.2931 Q39.0549,176.715 38.4611,176.4494 Q37.8674,176.1681 37.2424,176.1681 Q35.8986,176.1681 35.2111,177.2462 Q34.5236,178.3087 34.5236,180.4025 Q34.5236,182.4962 35.2111,183.5744 Q35.8986,184.6369 37.2424,184.6369 Q37.8674,184.6369 38.4611,184.3712 Q39.0549,184.09 39.6799,183.5119 L39.6799,186.2306 Z " fill="#FFFFFF"/><text fill="#FFFFFF" font-family="sans-serif" font-size="14" lengthAdjust="spacing" textLength="47.9814" x="53.9803" y="185.4367">Engine</text><line style="stroke:#E7E7E7;stroke-width:0.5;" x1="8" x2="118.6729" y1="196.59" y2="196.59"/><rect fill="none" height="6" style="stroke:#C82930;stroke-width:1.0;" width="6" x="15" y="207.2384"/><text fill="#FFFFFF" font-family="sans-serif" font-size="14" lengthAdjust="spacing" textLength="86.6729" x="27" y="213.5851">type : String</text><line style="stroke:#E7E7E7;stroke-width:0.5;" x1="8" x2="118.6729" y1="220.8869" y2="220.8869"/></g><!--class Wheel--><g id="elem_Wheel"><rect codeLine="12" fill="#313139" height="64.2969" id="Wheel" rx="2.5" ry="2.5" style="stroke:#E7E7E7;stroke-width:0.5;" width="108.5439" x="155.06" y="164.59"/><ellipse cx="184.7804" cy="180.59" fill="#2E5233" rx="11" ry="11" style="stroke:#E7E7E7;stroke-width:1.0;"/><path d="M187.7491,186.2306 Q187.171,186.5275 186.5304,186.6681 Q185.8897,186.8244 185.1866,186.8244 Q182.6866,186.8244 181.3585,185.1837 Q180.046,183.5275 180.046,180.4025 Q180.046,177.2775 181.3585,175.6212 Q182.6866,173.965 185.1866,173.965 Q185.8897,173.965 186.5304,174.1212 Q187.1866,174.2775 187.7491,174.5744 L187.7491,177.2931 Q187.1241,176.715 186.5304,176.4494 Q185.9366,176.1681 185.3116,176.1681 Q183.9679,176.1681 183.2804,177.2462 Q182.5929,178.3087 182.5929,180.4025 Q182.5929,182.4962 183.2804,183.5744 Q183.9679,184.6369 185.3116,184.6369 Q185.9366,184.6369 186.5304,184.3712 Q187.1241,184.09 187.7491,183.5119 L187.7491,186.2306 Z " fill="#FFFFFF"/><text fill="#FFFFFF" font-family="sans-serif" font-size="14" lengthAdjust="spacing" textLength="43.832" x="202.0516" y="185.4367">Wheel</text><line style="stroke:#E7E7E7;stroke-width:0.5;" x1="156.06" x2="262.6039" y1="196.59" y2="196.59"/><rect fill="none" height="6" style="stroke:#C82930;stroke-width:1.0;" width="6" x="163.06" y="207.2384"/><text fill="#FFFFFF" font-family="sans-serif" font-size="14" lengthAdjust="spacing" textLength="82.5439" x="175.06" y="213.5851">size : String</text><line style="stroke:#E7E7E7;stroke-width:0.5;" x1="156.06" x2="262.6039" y1="220.8869" y2="220.8869"/></g><!--reverse link Car to Engine--><g id="link_Car_Engine"><path codeLine="10" d="M97.4037,97.7004 C90.8237,107.0704 91.3,107.47 86.34,117.59 C79.12,132.33 73.72,149.75 69.97,164.41 " fill="none" id="Car-backto-Engine" style="stroke:#E7E7E7;stroke-width:1.0;"/><polygon fill="none" points="104.3,87.88,97.5784,90.4914,97.4037,97.7004,104.1253,95.089,104.3,87.88" style="stroke:#E7E7E7;stroke-width:1.0;"/><text fill="#FFFFFF" font-family="sans-serif" font-size="13" lengthAdjust="spacing" textLength="78.9331" x="87.34" y="130.6569">aggregation</text></g><!--reverse link Car to Wheel--><g id="link_Car_Wheel"><path codeLine="11" d="M161.2254,98.5636 C173.1354,122.6136 182.81,142.16 193.88,164.53 " fill="none" id="Car-backto-Wheel" style="stroke:#E7E7E7;stroke-width:1.0;"/><polygon fill="#E7E7E7" points="155.9,87.81,154.9782,94.9619,161.2254,98.5636,162.1472,91.4117,155.9,87.81" style="stroke:#E7E7E7;stroke-width:1.0;"/><text fill="#FFFFFF" font-family="sans-serif" font-size="13" lengthAdjust="spacing" textLength="79.2568" x="177.34" y="130.6569">composition</text><text fill="#FFFFFF" font-family="sans-serif" font-size="13" lengthAdjust="spacing" textLength="8.271" x="181.896" y="153.4207">4</text></g><!--SRC=[Iyv9B2vMS4uiKgZcKb3GpKtCJbMmKWWkAShCImSBvAUavY14Qhcuai4wNFFIC_DI8PfAAWjIKPI0ZClNrOKfib98J4ylIarFBCdCpmDBQW4bbKoK5C8pKi6c9-Vd5kGNPuBb8UP3PC365sTM8HiF0000]--></g></svg>