<svg xmlns="http://www.w3.org/2000/svg" xmlns:xlink="http://www.w3.org/1999/xlink" contentStyleType="text/css" height="298px" preserveAspectRatio="none" style="width:384px;height:298px;background:#1B1B1B;" version="1.1" viewBox="0 0 384 298" width="384px" zoomAndPan="magnify"><defs/><g><rect fill="#1B1B1B" height="298" style="stroke:none;stroke-width:1.0;" width="384" x="0" y="0"/><line style="stroke:#E7E7E7;stroke-width:0.5;stroke-dasharray:5.0,5.0;" x1="23" x2="23" y1="81.2969" y2="217.8281"/><line style="stroke:#E7E7E7;stroke-width:0.5;stroke-dasharray:5.0,5.0;" x1="200.0459" x2="200.0459" y1="81.2969" y2="217.8281"/><line style="stroke:#E7E7E7;stroke-width:0.5;stroke-dasharray:5.0,5.0;" x1="337.2676" x2="337.2676" y1="81.2969" y2="217.8281"/><text fill="#FFFFFF" font-family="sans-serif" font-size="14" lengthAdjust="spacing" textLength="31.9102" x="5" y="77.9951">User</text><ellipse cx="23.9551" cy="13.5" fill="#222222" rx="8" ry="8" style="stroke:#E7E7E7;stroke-width:0.5;"/><path d="M23.9551,21.5 L23.9551,48.5 M10.9551,29.5 L36.9551,29.5 M23.9551,48.5 L10.9551,63.5 M23.9551,48.5 L36.9551,63.5 " fill="none" style="stroke:#E7E7E7;stroke-width:0.5;"/><text fill="#FFFFFF" font-family="sans-serif" font-size="14" lengthAdjust="spacing" textLength="31.9102" x="5" y="229.8232">User</text><ellipse cx="23.9551" cy="241.625" fill="#222222" rx="8" ry="8" style="stroke:#E7E7E7;stroke-width:0.5;"/><path d="M23.9551,249.625 L23.9551,276.625 M10.9551,257.625 L36.9551,257.625 M23.9551,276.625 L10.9551,291.625 M23.9551,276.625 L36.9551,291.625 " fill="none" style="stroke:#E7E7E7;stroke-width:0.5;"/><rect fill="#222222" height="30.2969" rx="2.5" ry="2.5" style="stroke:#E7E7E7;stroke-width:0.5;" width="108.6709" x="146.0459" y="50"/><text fill="#FFFFFF" font-family="sans-serif" font-size="14" lengthAdjust="spacing" textLength="94.6709" x="153.0459" y="69.9951">Login System</text><rect fill="#222222" height="30.2969" rx="2.5" ry="2.5" style="stroke:#E7E7E7;stroke-width:0.5;" width="108.6709" x="146.0459" y="216.8281"/><text fill="#FFFFFF" font-family="sans-serif" font-size="14" lengthAdjust="spacing" textLength="94.6709" x="153.0459" y="236.8232">Login System</text><rect fill="#222222" height="30.2969" rx="2.5" ry="2.5" style="stroke:#E7E7E7;stroke-width:0.5;" width="80.8008" x="297.2676" y="50"/><text fill="#FFFFFF" font-family="sans-serif" font-size="14" lengthAdjust="spacing" textLength="66.8008" x="304.2676" y="69.9951">Database</text><rect fill="#222222" height="30.2969" rx="2.5" ry="2.5" style="stroke:#E7E7E7;stroke-width:0.5;" width="80.8008" x="297.2676" y="216.8281"/><text fill="#FFFFFF" font-family="sans-serif" font-size="14" lengthAdjust="spacing" textLength="66.8008" x="304.2676" y="236.8232">Database</text><polygon fill="#E7E7E7" points="188.3813,108.4297,198.3813,112.4297,188.3813,116.4297,192.3813,112.4297" style="stroke:#E7E7E7;stroke-width:1.0;"/><line style="stroke:#E7E7E7;stroke-width:1.0;" x1="23.9551" x2="194.3813" y1="112.4297" y2="112.4297"/><text fill="#FFFFFF" font-family="sans-serif" font-size="13" lengthAdjust="spacing" textLength="152.4263" x="30.9551" y="107.3638">Enter Login Credentials</text><polygon fill="#E7E7E7" points="325.668,137.5625,335.668,141.5625,325.668,145.5625,329.668,141.5625" style="stroke:#E7E7E7;stroke-width:1.0;"/><line style="stroke:#E7E7E7;stroke-width:1.0;" x1="200.3813" x2="331.668" y1="141.5625" y2="141.5625"/><text fill="#FFFFFF" font-family="sans-serif" font-size="13" lengthAdjust="spacing" textLength="87.1597" x="207.3813" y="136.4966">Validate User</text><polygon fill="#E7E7E7" points="211.3813,166.6953,201.3813,170.6953,211.3813,174.6953,207.3813,170.6953" style="stroke:#E7E7E7;stroke-width:1.0;"/><line style="stroke:#E7E7E7;stroke-width:1.0;stroke-dasharray:2.0,2.0;" x1="205.3813" x2="336.668" y1="170.6953" y2="170.6953"/><text fill="#FFFFFF" font-family="sans-serif" font-size="13" lengthAdjust="spacing" textLength="113.2866" x="217.3813" y="165.6294">Return Validation</text><polygon fill="#E7E7E7" points="34.9551,195.8281,24.9551,199.8281,34.9551,203.8281,30.9551,199.8281" style="stroke:#E7E7E7;stroke-width:1.0;"/><line style="stroke:#E7E7E7;stroke-width:1.0;stroke-dasharray:2.0,2.0;" x1="28.9551" x2="199.3813" y1="199.8281" y2="199.8281"/><text fill="#FFFFFF" font-family="sans-serif" font-size="13" lengthAdjust="spacing" textLength="101.8354" x="40.9551" y="194.7622">Access Granted</text><!--SRC=[LOuz3i8m38NtdCBgtWjqGA84iNIYWjqa5efKdCes0xV7fEh0QB_l_M2oAd1Jah2YM4bbHJReflei3FD7ZLuTeC8q_mCH3H-erCGuXl3BWFxW80nmPlDh2pa9PM8hk6XmqP4uEdB7fMGqsihzrU_cAzbRU0TAvMPpjLKCS4o9LE4YFeJo5m00]--></g></svg>