<svg xmlns="http://www.w3.org/2000/svg" xmlns:xlink="http://www.w3.org/1999/xlink" contentStyleType="text/css" height="623px" preserveAspectRatio="none" style="width:224px;height:623px;background:#1B1B1B;" version="1.1" viewBox="0 0 224 623" width="224px" zoomAndPan="magnify"><defs/><g><rect fill="#1B1B1B" height="623" style="stroke:none;stroke-width:1.0;" width="224" x="0" y="0"/><ellipse cx="85.87" cy="16" fill="#222222" rx="10" ry="10" style="stroke:#222222;stroke-width:1.0;"/><g id="Idle"><rect fill="#313139" height="50" rx="12.5" ry="12.5" style="stroke:#E7E7E7;stroke-width:0.5;" width="50" x="60.87" y="87"/><line style="stroke:#E7E7E7;stroke-width:0.5;" x1="60.87" x2="110.87" y1="113.2969" y2="113.2969"/><text fill="#FFFFFF" font-family="sans-serif" font-size="14" lengthAdjust="spacing" textLength="25.5186" x="73.1107" y="104.9951">Idle</text></g><g id="WaitingForPayment"><rect fill="#313139" height="50" rx="12.5" ry="12.5" style="stroke:#E7E7E7;stroke-width:0.5;" width="157.7441" x="7" y="214"/><line style="stroke:#E7E7E7;stroke-width:0.5;" x1="7" x2="164.7441" y1="240.2969" y2="240.2969"/><text fill="#FFFFFF" font-family="sans-serif" font-size="14" lengthAdjust="spacing" textLength="137.7441" x="17" y="231.9951">WaitingForPayment</text></g><g id="Processing"><rect fill="#313139" height="50" rx="12.5" ry="12.5" style="stroke:#E7E7E7;stroke-width:0.5;" width="95.3115" x="38.22" y="341"/><line style="stroke:#E7E7E7;stroke-width:0.5;" x1="38.22" x2="133.5315" y1="367.2969" y2="367.2969"/><text fill="#FFFFFF" font-family="sans-serif" font-size="14" lengthAdjust="spacing" textLength="75.3115" x="48.22" y="358.9951">Processing</text></g><g id="Shipped"><rect fill="#313139" height="50" rx="12.5" ry="12.5" style="stroke:#E7E7E7;stroke-width:0.5;" width="76.9229" x="47.41" y="468"/><line style="stroke:#E7E7E7;stroke-width:0.5;" x1="47.41" x2="124.3329" y1="494.2969" y2="494.2969"/><text fill="#FFFFFF" font-family="sans-serif" font-size="14" lengthAdjust="spacing" textLength="56.9229" x="57.41" y="485.9951">Shipped</text></g><ellipse cx="85.87" cy="606" fill="none" rx="11" ry="11" style="stroke:#222222;stroke-width:1.0;"/><ellipse cx="85.87" cy="606" fill="#222222" rx="6" ry="6" style="stroke:#222222;stroke-width:1.0;"/><!--link *start* to Idle--><g id="link_*start*_Idle"><path d="M85.87,26.36 C85.87,40.29 85.87,60.95 85.87,80.65 " fill="none" id="*start*-to-Idle" style="stroke:#E7E7E7;stroke-width:1.0;"/><polygon fill="#E7E7E7" points="85.87,86.65,89.87,77.65,85.87,81.65,81.87,77.65,85.87,86.65" style="stroke:#E7E7E7;stroke-width:1.0;"/></g><!--link Idle to WaitingForPayment--><g id="link_Idle_WaitingForPayment"><path d="M85.87,137.4 C85.87,159.42 85.87,185.66 85.87,207.66 " fill="none" id="Idle-to-WaitingForPayment" style="stroke:#E7E7E7;stroke-width:1.0;"/><polygon fill="#E7E7E7" points="85.87,213.66,89.87,204.66,85.87,208.66,81.87,204.66,85.87,213.66" style="stroke:#E7E7E7;stroke-width:1.0;"/><text fill="#FFFFFF" font-family="sans-serif" font-size="13" lengthAdjust="spacing" textLength="84.1191" x="86.87" y="180.0669">Order Placed</text></g><!--link WaitingForPayment to Processing--><g id="link_WaitingForPayment_Processing"><path d="M85.87,264.4 C85.87,286.42 85.87,312.66 85.87,334.66 " fill="none" id="WaitingForPayment-to-Processing" style="stroke:#E7E7E7;stroke-width:1.0;"/><polygon fill="#E7E7E7" points="85.87,340.66,89.87,331.66,85.87,335.66,81.87,331.66,85.87,340.66" style="stroke:#E7E7E7;stroke-width:1.0;"/><text fill="#FFFFFF" font-family="sans-serif" font-size="13" lengthAdjust="spacing" textLength="129.3462" x="86.87" y="307.0669">Payment Confirmed</text></g><!--link Processing to Shipped--><g id="link_Processing_Shipped"><path d="M85.87,391.4 C85.87,413.42 85.87,439.66 85.87,461.66 " fill="none" id="Processing-to-Shipped" style="stroke:#E7E7E7;stroke-width:1.0;"/><polygon fill="#E7E7E7" points="85.87,467.66,89.87,458.66,85.87,462.66,81.87,458.66,85.87,467.66" style="stroke:#E7E7E7;stroke-width:1.0;"/><text fill="#FFFFFF" font-family="sans-serif" font-size="13" lengthAdjust="spacing" textLength="94.1611" x="86.87" y="434.0669">Order Shipped</text></g><!--link Shipped to *end*--><g id="link_Shipped_*end*"><path d="M85.87,518.36 C85.87,542.23 85.87,571.46 85.87,588.71 " fill="none" id="Shipped-to-*end*" style="stroke:#E7E7E7;stroke-width:1.0;"/><polygon fill="#E7E7E7" points="85.87,594.71,89.87,585.71,85.87,589.71,81.87,585.71,85.87,594.71" style="stroke:#E7E7E7;stroke-width:1.0;"/><text fill="#FFFFFF" font-family="sans-serif" font-size="13" lengthAdjust="spacing" textLength="103.8223" x="86.87" y="561.0669">Order Delivered</text></g><!--SRC=[YzQALT3LjLFmJCb9vG8HO5vuOcP9PbwwMtvHG69bRcfUYOALWdzHIcgHGa1EOd9g2XUc0f2sWAByvDJYOg04K3rCmZa_BospA1Ue2KaQf3eu8xEW83K5RZIKpmKJ1wc91ZeF9k-IcfDPbbgKcW80]--></g></svg>