<svg xmlns="http://www.w3.org/2000/svg" xmlns:xlink="http://www.w3.org/1999/xlink" contentStyleType="text/css" height="524px" preserveAspectRatio="none" style="width:252px;height:524px;background:#1B1B1B;" version="1.1" viewBox="0 0 252 524" width="252px" zoomAndPan="magnify"><defs/><g><rect fill="#1B1B1B" height="524" style="stroke:none;stroke-width:1.0;" width="252" x="0" y="0"/><ellipse cx="54.66" cy="16" fill="#222222" rx="10" ry="10" style="stroke:#222222;stroke-width:1.0;"/><g id="Created"><rect fill="#313139" height="50" rx="12.5" ry="12.5" style="stroke:#E7E7E7;stroke-width:0.5;" width="75.7129" x="16.8" y="87"/><line style="stroke:#E7E7E7;stroke-width:0.5;" x1="16.8" x2="92.5129" y1="113.2969" y2="113.2969"/><text fill="#FFFFFF" font-family="sans-serif" font-size="14" lengthAdjust="spacing" textLength="55.7129" x="26.8" y="104.9951">Created</text></g><g id="Processing"><rect fill="#313139" height="50" rx="12.5" ry="12.5" style="stroke:#E7E7E7;stroke-width:0.5;" width="95.3115" x="7" y="214"/><line style="stroke:#E7E7E7;stroke-width:0.5;" x1="7" x2="102.3115" y1="240.2969" y2="240.2969"/><text fill="#FFFFFF" font-family="sans-serif" font-size="14" lengthAdjust="spacing" textLength="75.3115" x="17" y="231.9951">Processing</text></g><g id="Shipped"><rect fill="#313139" height="50" rx="12.5" ry="12.5" style="stroke:#E7E7E7;stroke-width:0.5;" width="76.9229" x="16.19" y="341"/><line style="stroke:#E7E7E7;stroke-width:0.5;" x1="16.19" x2="93.1129" y1="367.2969" y2="367.2969"/><text fill="#FFFFFF" font-family="sans-serif" font-size="14" lengthAdjust="spacing" textLength="56.9229" x="26.19" y="358.9951">Shipped</text></g><g id="Delivered"><rect fill="#313139" height="50" rx="12.5" ry="12.5" style="stroke:#E7E7E7;stroke-width:0.5;" width="87.3271" x="10.99" y="468"/><line style="stroke:#E7E7E7;stroke-width:0.5;" x1="10.99" x2="98.3171" y1="494.2969" y2="494.2969"/><text fill="#FFFFFF" font-family="sans-serif" font-size="14" lengthAdjust="spacing" textLength="67.3271" x="20.99" y="485.9951">Delivered</text></g><!--link *start* to Created--><g id="link_*start*_Created"><path d="M54.66,26.36 C54.66,40.29 54.66,60.95 54.66,80.65 " fill="none" id="*start*-to-Created" style="stroke:#E7E7E7;stroke-width:1.0;"/><polygon fill="#E7E7E7" points="54.66,86.65,58.66,77.65,54.66,81.65,50.66,77.65,54.66,86.65" style="stroke:#E7E7E7;stroke-width:1.0;"/></g><!--link Created to Processing--><g id="link_Created_Processing"><path d="M54.66,137.4 C54.66,159.42 54.66,185.66 54.66,207.66 " fill="none" id="Created-to-Processing" style="stroke:#E7E7E7;stroke-width:1.0;"/><polygon fill="#E7E7E7" points="54.66,213.66,58.66,204.66,54.66,208.66,50.66,204.66,54.66,213.66" style="stroke:#E7E7E7;stroke-width:1.0;"/><text fill="#FFFFFF" font-family="sans-serif" font-size="13" lengthAdjust="spacing" textLength="101.0356" x="55.66" y="180.0669">Order Received</text></g><!--link Processing to Shipped--><g id="link_Processing_Shipped"><path d="M54.66,264.4 C54.66,286.42 54.66,312.66 54.66,334.66 " fill="none" id="Processing-to-Shipped" style="stroke:#E7E7E7;stroke-width:1.0;"/><polygon fill="#E7E7E7" points="54.66,340.66,58.66,331.66,54.66,335.66,50.66,331.66,54.66,340.66" style="stroke:#E7E7E7;stroke-width:1.0;"/><text fill="#FFFFFF" font-family="sans-serif" font-size="13" lengthAdjust="spacing" textLength="114.6514" x="55.66" y="307.0669">Order Dispatched</text></g><!--link Shipped to Delivered--><g id="link_Shipped_Delivered"><path d="M54.66,391.4 C54.66,413.42 54.66,439.66 54.66,461.66 " fill="none" id="Shipped-to-Delivered" style="stroke:#E7E7E7;stroke-width:1.0;"/><polygon fill="#E7E7E7" points="54.66,467.66,58.66,458.66,54.66,462.66,50.66,458.66,54.66,467.66" style="stroke:#E7E7E7;stroke-width:1.0;"/><text fill="#FFFFFF" font-family="sans-serif" font-size="13" lengthAdjust="spacing" textLength="188.3921" x="55.66" y="434.0669">Order Received by Customer</text></g><!--SRC=[YzQALT3LjLDmBafDB4bDuOBIOB60elparEBYpBnq1Ii5_wAKr2A5eDJarCmoe3eaEP3Iu8pCWWAWDfWwbypYWiIIv0oWIfWKI9bBQWvGTn6IGfY12acL2iwbnINvkQb50000]--></g></svg>